# xmcd
#
# Track frame offsets: 
#        188
#        14443
#        30373
#        45475
#        63948
#        74838
#        86908
#        99673
#        112113
#        127710
#        144543
#        162390
#
# Disc length: 2326 seconds
#
# Revision: 9
# Processed by: cddbd v1.5.2PL0 Copyright (c) Steve Scherf et al.
# Submitted via: ExactAudioCopy v0.99pb4
#
DISCID=a409140c
DTITLE=J.J. Cale - Number 10
DYEAR=1992
DGENRE=Blues
TTITLE0=Lonesome Train
TTITLE1=Digital Blues
TTITLE2=Feeling In Love
TTITLE3=Artificial Paradise
TTITLE4=Passion
TTITLE5=Take Out Some Insurance
TTITLE6=Jailer
TTITLE7=Low Rider
TTITLE8=Traces
TTITLE9=She's In Love
TTITLE10=Shady Grove
TTITLE11=Roll On Mama
EXTD=
EXTT0=
EXTT1=
EXTT2=
EXTT3=
EXTT4=
EXTT5=
EXTT6=
EXTT7=
EXTT8=
EXTT9=
EXTT10=
EXTT11=
PLAYORDER=
